<svg width="40" height="40" viewBox="0 0 40 40" fill="none" xmlns="http://www.w3.org/2000/svg">
<path fill-rule="evenodd" clip-rule="evenodd" d="M23.5136 5.13447V5.13449L23.6568 6.5667C23.8202 8.20024 23.9018 9.01701 24.4547 9.246C25.0075 9.47498 25.6428 8.95519 26.9134 7.91561L28.0273 7.00418C28.6931 6.45947 29.026 6.18711 29.4108 6.20631C29.7956 6.2255 30.0998 6.52963 30.708 7.13788L32.8624 9.29224C33.4706 9.90049 33.7748 10.2046 33.794 10.5895C33.8132 10.9743 33.5408 11.3072 32.9961 11.9729L32.0846 13.0869C31.045 14.3575 30.5252 14.9928 30.7542 15.5457C30.9832 16.0985 31.8 16.1801 33.4335 16.3435L34.8658 16.4867C35.7218 16.5723 36.1497 16.6151 36.4083 16.9008C36.6668 17.1865 36.6668 17.6166 36.6668 18.4768V21.5235C36.6668 22.3837 36.6668 22.8138 36.4083 23.0995C36.1497 23.3852 35.7218 23.428 34.8658 23.5136L33.4341 23.6568C31.8006 23.8201 30.9838 23.9018 30.7549 24.4546C30.5259 25.0074 31.0457 25.6427 32.0852 26.9133L32.9962 28.0267C33.5409 28.6924 33.8132 29.0253 33.794 29.4101C33.7748 29.795 33.4707 30.0991 32.8625 30.7074L30.7081 32.8617C30.0998 33.47 29.7957 33.7741 29.4109 33.7933C29.0261 33.8125 28.6932 33.5401 28.0274 32.9954L26.9134 32.084C25.6428 31.0444 25.0075 30.5246 24.4547 30.7536C23.9019 30.9826 23.8202 31.7993 23.6569 33.4329L23.5136 34.8658C23.428 35.7218 23.3852 36.1497 23.0995 36.4083C22.8138 36.6668 22.3837 36.6668 21.5235 36.6668H18.4768C17.6166 36.6668 17.1865 36.6668 16.9008 36.4083C16.6151 36.1497 16.5723 35.7218 16.4867 34.8658L16.3435 33.4335C16.1801 31.8 16.0985 30.9832 15.5457 30.7542C14.9928 30.5253 14.3575 31.045 13.0869 32.0846L11.9728 32.9962C11.3071 33.5409 10.9742 33.8132 10.5894 33.794C10.2045 33.7748 9.90041 33.4707 9.29216 32.8625L7.1378 30.7081C6.52955 30.0999 6.22542 29.7957 6.20623 29.4109C6.18704 29.0261 6.45939 28.6932 7.0041 28.0274L7.9156 26.9134C8.95518 25.6428 9.47497 25.0075 9.24598 24.4547C9.017 23.9018 8.20023 23.8202 6.56669 23.6568L5.13449 23.5136H5.13447C4.27855 23.428 3.85059 23.3852 3.59204 23.0995C3.3335 22.8138 3.3335 22.3837 3.3335 21.5235L3.3335 18.4768C3.3335 17.6166 3.3335 17.1865 3.59204 16.9008C3.85059 16.6151 4.27856 16.5723 5.13449 16.4867L6.56732 16.3434C8.20086 16.1801 9.01763 16.0984 9.24661 15.5456C9.47559 14.9928 8.9558 14.3575 7.91623 13.0869L7.00418 11.9722C6.45947 11.3064 6.18711 10.9735 6.20631 10.5887C6.2255 10.2039 6.52963 9.89973 7.13788 9.29148L9.29223 7.13713C9.90049 6.52887 10.2046 6.22475 10.5894 6.20555C10.9743 6.18636 11.3072 6.45871 11.9729 7.00343L13.087 7.91496C14.3576 8.95454 14.9929 9.47433 15.5457 9.24534C16.0985 9.01636 16.1802 8.19959 16.3436 6.56605L16.4867 5.13449C16.5723 4.27856 16.6151 3.85059 16.9008 3.59204C17.1865 3.3335 17.6166 3.3335 18.4768 3.3335H21.5235C22.3837 3.3335 22.8138 3.3335 23.0995 3.59204C23.3852 3.85059 23.428 4.27855 23.5136 5.13447ZM20.0002 26.6668C23.6821 26.6668 26.6668 23.6821 26.6668 20.0002C26.6668 16.3183 23.6821 13.3335 20.0002 13.3335C16.3183 13.3335 13.3335 16.3183 13.3335 20.0002C13.3335 23.6821 16.3183 26.6668 20.0002 26.6668Z" fill="#A3A3A3"/>
</svg>
